{
    "asset" : {
        "generator" : "Khronos glTF Blender I/O v3.3.32",
        "version" : "2.0"
    },
    "scene" : 0,
    "scenes" : [
        {
            "name" : "Scene",
            "nodes" : [
                0,
                1,
                2,
                3,
                4,
                5
            ]
        }
    ],
    "nodes" : [
        {
            "mesh" : 0,
            "name" : "Donut"
        },
        {
            "mesh" : 1,
            "name" : "Icing",
            "scale" : [
                1.0099999904632568,
                1.0099999904632568,
                1.0099999904632568
            ]
        },
        {
            "mesh" : 2,
            "name" : "Sprinkles",
            "translation" : [
                -0.5183438062667847,
                0.6009999513626099,
                -0.0341181606054306
            ]
        },
        {
            "mesh" : 3,
            "name" : "Sprinkles.001",
            "translation" : [
                -0.2419438660144806,
                0.3201228976249695,
                -0.3558344841003418
            ]
        },
        {
            "mesh" : 4,
            "name" : "Sprinkles.002",
            "translation" : [
                -0.47176048159599304,
                0.4775463938713074,
                -0.15651708841323853
            ]
        },
        {
            "mesh" : 5,
            "name" : "Sprinkles.003",
            "translation" : [
                -0.3734203279018402,
                0.5072602033615112,
                -0.12402580678462982
            ]
        }
    ],
    "materials" : [
        {
            "doubleSided" : true,
            "name" : "Material.001",
            "pbrMetallicRoughness" : {
                "baseColorTexture" : {
                    "index" : 0
                },
                "metallicFactor" : 0,
                "roughnessFactor" : 0.5
            }
        },
        {
            "doubleSided" : true,
            "name" : "Material",
            "pbrMetallicRoughness" : {
                "baseColorFactor" : [
                    0.6479107141494751,
                    0.029355525970458984,
                    1,
                    1
                ],
                "metallicFactor" : 0,
                "roughnessFactor" : 0.30678465962409973
            }
        },
        {
            "doubleSided" : true,
            "name" : "Sprinkles",
            "pbrMetallicRoughness" : {
                "metallicFactor" : 0,
                "roughnessFactor" : 0.5
            }
        }
    ],
    "meshes" : [
        {
            "name" : "Torus",
            "primitives" : [
                {
                    "attributes" : {
                        "POSITION" : 0,
                        "NORMAL" : 1,
                        "TEXCOORD_0" : 2
                    },
                    "indices" : 3,
                    "material" : 0
                }
            ]
        },
        {
            "name" : "Torus.002",
            "primitives" : [
                {
                    "attributes" : {
                        "POSITION" : 4,
                        "NORMAL" : 5,
                        "TEXCOORD_0" : 6
                    },
                    "indices" : 7,
                    "material" : 1
                }
            ]
        },
        {
            "name" : "Cylinder",
            "primitives" : [
                {
                    "attributes" : {
                        "POSITION" : 8,
                        "NORMAL" : 9,
                        "TEXCOORD_0" : 10,
                        "COLOR_0" : 11
                    },
                    "indices" : 12,
                    "material" : 2
                }
            ]
        },
        {
            "name" : "Cylinder.001",
            "primitives" : [
                {
                    "attributes" : {
                        "POSITION" : 13,
                        "NORMAL" : 14,
                        "TEXCOORD_0" : 15
                    },
                    "indices" : 16,
                    "material" : 2
                }
            ]
        },
        {
            "name" : "Cylinder.002",
            "primitives" : [
                {
                    "attributes" : {
                        "POSITION" : 17,
                        "NORMAL" : 18,
                        "TEXCOORD_0" : 19
                    },
                    "indices" : 12,
                    "material" : 2
                }
            ]
        },
        {
            "name" : "Cylinder.003",
            "primitives" : [
                {
                    "attributes" : {
                        "POSITION" : 20,
                        "NORMAL" : 21,
                        "TEXCOORD_0" : 22,
                        "COLOR_0" : 23
                    },
                    "indices" : 24,
                    "material" : 2
                }
            ]
        }
    ],
    "textures" : [
        {
            "sampler" : 0,
            "source" : 0
        }
    ],
    "images" : [
        {
            "mimeType" : "image/png",
            "name" : "Donut base",
            "uri" : "Donut%20base.png"
        }
    ],
    "accessors" : [
        {
            "bufferView" : 0,
            "componentType" : 5126,
            "count" : 783360,
            "max" : [
                0.6313750743865967,
                0.2502199709415436,
                0.6182625889778137
            ],
            "min" : [
                -0.6122083067893982,
                -0.2599320709705353,
                -0.6184236407279968
            ],
            "type" : "VEC3"
        },
        {
            "bufferView" : 1,
            "componentType" : 5126,
            "count" : 783360,
            "type" : "VEC3"
        },
        {
            "bufferView" : 2,
            "componentType" : 5126,
            "count" : 783360,
            "type" : "VEC2"
        },
        {
            "bufferView" : 3,
            "componentType" : 5125,
            "count" : 1175040,
            "type" : "SCALAR"
        },
        {
            "bufferView" : 4,
            "componentType" : 5126,
            "count" : 815616,
            "max" : [
                0.6440273523330688,
                0.29803282022476196,
                0.6457482576370239
            ],
            "min" : [
                -0.63517826795578,
                -0.13207833468914032,
                -0.6405687928199768
            ],
            "type" : "VEC3"
        },
        {
            "bufferView" : 5,
            "componentType" : 5126,
            "count" : 815616,
            "type" : "VEC3"
        },
        {
            "bufferView" : 6,
            "componentType" : 5126,
            "count" : 815616,
            "type" : "VEC2"
        },
        {
            "bufferView" : 7,
            "componentType" : 5125,
            "count" : 1223424,
            "type" : "SCALAR"
        },
        {
            "bufferView" : 8,
            "componentType" : 5126,
            "count" : 52,
            "max" : [
                0.058394905179739,
                0.01913813129067421,
                0.07055194675922394
            ],
            "min" : [
                -0.058394905179739,
                -0.01913813129067421,
                -0.07055194675922394
            ],
            "type" : "VEC3"
        },
        {
            "bufferView" : 9,
            "componentType" : 5126,
            "count" : 52,
            "type" : "VEC3"
        },
        {
            "bufferView" : 10,
            "componentType" : 5126,
            "count" : 52,
            "type" : "VEC2"
        },
        {
            "bufferView" : 11,
            "componentType" : 5123,
            "count" : 52,
            "normalized" : true,
            "type" : "VEC4"
        },
        {
            "bufferView" : 12,
            "componentType" : 5123,
            "count" : 180,
            "type" : "SCALAR"
        },
        {
            "bufferView" : 13,
            "componentType" : 5126,
            "count" : 61,
            "max" : [
                0.027807820588350296,
                0.025190219283103943,
                0.0829889327287674
            ],
            "min" : [
                -0.05810534581542015,
                -0.03149436414241791,
                -0.04201928898692131
            ],
            "type" : "VEC3"
        },
        {
            "bufferView" : 14,
            "componentType" : 5126,
            "count" : 61,
            "type" : "VEC3"
        },
        {
            "bufferView" : 15,
            "componentType" : 5126,
            "count" : 61,
            "type" : "VEC2"
        },
        {
            "bufferView" : 16,
            "componentType" : 5123,
            "count" : 228,
            "type" : "SCALAR"
        },
        {
            "bufferView" : 17,
            "componentType" : 5126,
            "count" : 52,
            "max" : [
                0.040891505777835846,
                0.01934363879263401,
                0.04030264541506767
            ],
            "min" : [
                -0.036711685359478,
                -0.01933768205344677,
                -0.04585714638233185
            ],
            "type" : "VEC3"
        },
        {
            "bufferView" : 18,
            "componentType" : 5126,
            "count" : 52,
            "type" : "VEC3"
        },
        {
            "bufferView" : 19,
            "componentType" : 5126,
            "count" : 52,
            "type" : "VEC2"
        },
        {
            "bufferView" : 20,
            "componentType" : 5126,
            "count" : 70,
            "max" : [
                0.05465492978692055,
                0.018891962245106697,
                0.06560469418764114
            ],
            "min" : [
                -0.0575893260538578,
                -0.01933089829981327,
                -0.07434412091970444
            ],
            "type" : "VEC3"
        },
        {
            "bufferView" : 21,
            "componentType" : 5126,
            "count" : 70,
            "type" : "VEC3"
        },
        {
            "bufferView" : 22,
            "componentType" : 5126,
            "count" : 70,
            "type" : "VEC2"
        },
        {
            "bufferView" : 23,
            "componentType" : 5123,
            "count" : 70,
            "normalized" : true,
            "type" : "VEC4"
        },
        {
            "bufferView" : 24,
            "componentType" : 5123,
            "count" : 276,
            "type" : "SCALAR"
        }
    ],
    "bufferViews" : [
        {
            "buffer" : 0,
            "byteLength" : 9400320,
            "byteOffset" : 0,
            "target" : 34962
        },
        {
            "buffer" : 0,
            "byteLength" : 9400320,
            "byteOffset" : 9400320,
            "target" : 34962
        },
        {
            "buffer" : 0,
            "byteLength" : 6266880,
            "byteOffset" : 18800640,
            "target" : 34962
        },
        {
            "buffer" : 0,
            "byteLength" : 4700160,
            "byteOffset" : 25067520,
            "target" : 34963
        },
        {
            "buffer" : 0,
            "byteLength" : 9787392,
            "byteOffset" : 29767680,
            "target" : 34962
        },
        {
            "buffer" : 0,
            "byteLength" : 9787392,
            "byteOffset" : 39555072,
            "target" : 34962
        },
        {
            "buffer" : 0,
            "byteLength" : 6524928,
            "byteOffset" : 49342464,
            "target" : 34962
        },
        {
            "buffer" : 0,
            "byteLength" : 4893696,
            "byteOffset" : 55867392,
            "target" : 34963
        },
        {
            "buffer" : 0,
            "byteLength" : 624,
            "byteOffset" : 60761088,
            "target" : 34962
        },
        {
            "buffer" : 0,
            "byteLength" : 624,
            "byteOffset" : 60761712,
            "target" : 34962
        },
        {
            "buffer" : 0,
            "byteLength" : 416,
            "byteOffset" : 60762336,
            "target" : 34962
        },
        {
            "buffer" : 0,
            "byteLength" : 416,
            "byteOffset" : 60762752,
            "target" : 34962
        },
        {
            "buffer" : 0,
            "byteLength" : 360,
            "byteOffset" : 60763168,
            "target" : 34963
        },
        {
            "buffer" : 0,
            "byteLength" : 732,
            "byteOffset" : 60763528,
            "target" : 34962
        },
        {
            "buffer" : 0,
            "byteLength" : 732,
            "byteOffset" : 60764260,
            "target" : 34962
        },
        {
            "buffer" : 0,
            "byteLength" : 488,
            "byteOffset" : 60764992,
            "target" : 34962
        },
        {
            "buffer" : 0,
            "byteLength" : 456,
            "byteOffset" : 60765480,
            "target" : 34963
        },
        {
            "buffer" : 0,
            "byteLength" : 624,
            "byteOffset" : 60765936,
            "target" : 34962
        },
        {
            "buffer" : 0,
            "byteLength" : 624,
            "byteOffset" : 60766560,
            "target" : 34962
        },
        {
            "buffer" : 0,
            "byteLength" : 416,
            "byteOffset" : 60767184,
            "target" : 34962
        },
        {
            "buffer" : 0,
            "byteLength" : 840,
            "byteOffset" : 60767600,
            "target" : 34962
        },
        {
            "buffer" : 0,
            "byteLength" : 840,
            "byteOffset" : 60768440,
            "target" : 34962
        },
        {
            "buffer" : 0,
            "byteLength" : 560,
            "byteOffset" : 60769280,
            "target" : 34962
        },
        {
            "buffer" : 0,
            "byteLength" : 560,
            "byteOffset" : 60769840,
            "target" : 34962
        },
        {
            "buffer" : 0,
            "byteLength" : 552,
            "byteOffset" : 60770400,
            "target" : 34963
        }
    ],
    "samplers" : [
        {
            "magFilter" : 9729,
            "minFilter" : 9987
        }
    ],
    "buffers" : [
        {
            "byteLength" : 60770952,
            "uri" : "Donut.bin"
        }
    ]
}
