{
  "accessors": [
    {
      "bufferView": 2,
      "componentType": 5126,
      "count": 766,
      "max": [
        147.804931640625,
        97.49684143066406,
        294.2214660644531
      ],
      "min": [
        -174.85299682617188,
        -199.29331970214844,
        -0.7780914306640625
      ],
      "type": "VEC3"
    },
    {
      "bufferView": 2,
      "byteOffset": 9192,
      "componentType": 5126,
      "count": 766,
      "max": [
        1.0,
        1.0,
        1.0
      ],
      "min": [
        -1.0,
        -1.0,
        -1.0
      ],
      "type": "VEC3"
    },
    {
      "bufferView": 3,
      "componentType": 5126,
      "count": 766,
      "max": [
        1.0,
        1.0,
        1.0,
        1.0
      ],
      "min": [
        -1.0,
        -1.0,
        -1.0,
        -1.0
      ],
      "type": "VEC4"
    },
    {
      "bufferView": 1,
      "componentType": 5126,
      "count": 766,
      "max": [
        0.9920000433921814,
        0.9831272959709167
      ],
      "min": [
        0.00800000037997961,
        0.00800000037997961
      ],
      "type": "VEC2"
    },
    {
      "bufferView": 0,
      "componentType": 5125,
      "count": 2172,
      "type": "SCALAR"
    },
    {
      "bufferView": 2,
      "byteOffset": 18384,
      "componentType": 5126,
      "count": 7688,
      "max": [
        156.72767639160156,
        347.17059326171875,
        296.1076965332031
      ],
      "min": [
        -180.78602600097656,
        -72.22056579589844,
        -1.260751485824585
      ],
      "type": "VEC3"
    },
    {
      "bufferView": 2,
      "byteOffset": 110640,
      "componentType": 5126,
      "count": 7688,
      "max": [
        1.0,
        1.0,
        1.0
      ],
      "min": [
        -1.0,
        -1.0,
        -1.0
      ],
      "type": "VEC3"
    },
    {
      "bufferView": 3,
      "byteOffset": 12256,
      "componentType": 5126,
      "count": 7688,
      "max": [
        1.0,
        1.0,
        1.0,
        1.0
      ],
      "min": [
        -1.0,
        -1.0,
        -1.0,
        -1.0
      ],
      "type": "VEC4"
    },
    {
      "bufferView": 1,
      "byteOffset": 6128,
      "componentType": 5126,
      "count": 7688,
      "max": [
        0.9902105331420898,
        0.9920000433921814
      ],
      "min": [
        0.00800000037997961,
        0.00800000037997961
      ],
      "type": "VEC2"
    },
    {
      "bufferView": 0,
      "byteOffset": 8688,
      "componentType": 5125,
      "count": 25536,
      "type": "SCALAR"
    },
    {
      "bufferView": 2,
      "byteOffset": 202896,
      "componentType": 5126,
      "count": 19372,
      "max": [
        322.666259765625,
        189.22543334960938,
        218.48248291015625
      ],
      "min": [
        -367.4899597167969,
        -207.3517608642578,
        -836.705810546875
      ],
      "type": "VEC3"
    },
    {
      "bufferView": 2,
      "byteOffset": 435360,
      "componentType": 5126,
      "count": 19372,
      "max": [
        1.0,
        1.0,
        1.0
      ],
      "min": [
        -1.0,
        -1.0,
        -1.0
      ],
      "type": "VEC3"
    },
    {
      "bufferView": 3,
      "byteOffset": 135264,
      "componentType": 5126,
      "count": 19372,
      "max": [
        1.0,
        0.999910831451416,
        0.9996293187141418,
        1.0
      ],
      "min": [
        -1.0,
        -0.9998902082443237,
        -0.9999880790710449,
        -1.0
      ],
      "type": "VEC4"
    },
    {
      "bufferView": 1,
      "byteOffset": 67632,
      "componentType": 5126,
      "count": 19372,
      "max": [
        1.7511234283447266,
        6.594555377960205
      ],
      "min": [
        0.00800000037997961,
        0.00800000037997961
      ],
      "type": "VEC2"
    },
    {
      "bufferView": 0,
      "byteOffset": 110832,
      "componentType": 5125,
      "count": 95460,
      "type": "SCALAR"
    },
    {
      "bufferView": 2,
      "byteOffset": 667824,
      "componentType": 5126,
      "count": 4932,
      "max": [
        1132.5689697265625,
        240.1245880126953,
        308.0741271972656
      ],
      "min": [
        -781.071533203125,
        -48.74229431152344,
        76.80654907226563
      ],
      "type": "VEC3"
    },
    {
      "bufferView": 2,
      "byteOffset": 727008,
      "componentType": 5126,
      "count": 4932,
      "max": [
        1.0,
        1.0,
        1.0
      ],
      "min": [
        -1.0,
        -1.0,
        -1.0
      ],
      "type": "VEC3"
    },
    {
      "bufferView": 3,
      "byteOffset": 445216,
      "componentType": 5126,
      "count": 4932,
      "max": [
        1.0,
        1.0,
        1.0,
        1.0
      ],
      "min": [
        -1.0,
        -1.0,
        -1.0,
        -1.0
      ],
      "type": "VEC4"
    },
    {
      "bufferView": 1,
      "byteOffset": 222608,
      "componentType": 5126,
      "count": 4932,
      "max": [
        0.9920000433921814,
        0.9884697198867798
      ],
      "min": [
        0.00800000037997961,
        0.00800000037997961
      ],
      "type": "VEC2"
    },
    {
      "bufferView": 0,
      "byteOffset": 492672,
      "componentType": 5125,
      "count": 7368,
      "type": "SCALAR"
    },
    {
      "bufferView": 2,
      "byteOffset": 786192,
      "componentType": 5126,
      "count": 4748,
      "max": [
        136.68995666503906,
        112.38658905029297,
        263.5888977050781
      ],
      "min": [
        -166.8984832763672,
        -164.09767150878906,
        35.768245697021484
      ],
      "type": "VEC3"
    },
    {
      "bufferView": 2,
      "byteOffset": 843168,
      "componentType": 5126,
      "count": 4748,
      "max": [
        1.0,
        1.0,
        1.0
      ],
      "min": [
        -1.0,
        -1.0,
        -1.0
      ],
      "type": "VEC3"
    },
    {
      "bufferView": 3,
      "byteOffset": 524128,
      "componentType": 5126,
      "count": 4748,
      "max": [
        1.0,
        1.0,
        1.0,
        1.0
      ],
      "min": [
        -1.0,
        -1.0,
        -1.0,
        -1.0
      ],
      "type": "VEC4"
    },
    {
      "bufferView": 1,
      "byteOffset": 262064,
      "componentType": 5126,
      "count": 4748,
      "max": [
        0.9920000433921814,
        0.9874976277351379
      ],
      "min": [
        0.00800000037997961,
        0.00800000037997961
      ],
      "type": "VEC2"
    },
    {
      "bufferView": 0,
      "byteOffset": 522144,
      "componentType": 5125,
      "count": 12528,
      "type": "SCALAR"
    }
  ],
  "asset": {
    "extras": {
      "author": "Pau Torres (https://sketchfab.com/Stir17)",
      "license": "CC-BY-4.0 (http://creativecommons.org/licenses/by/4.0/)",
      "source": "https://sketchfab.com/3d-models/house-diorama-ab85a249815b4d14b5b9a4c60efdb821",
      "title": "House Diorama"
    },
    "generator": "Sketchfab-12.65.0",
    "version": "2.0"
  },
  "bufferViews": [
    {
      "buffer": 0,
      "byteLength": 572256,
      "name": "floatBufferViews",
      "target": 34963
    },
    {
      "buffer": 0,
      "byteLength": 300048,
      "byteOffset": 572256,
      "byteStride": 8,
      "name": "floatBufferViews",
      "target": 34962
    },
    {
      "buffer": 0,
      "byteLength": 900144,
      "byteOffset": 872304,
      "byteStride": 12,
      "name": "floatBufferViews",
      "target": 34962
    },
    {
      "buffer": 0,
      "byteLength": 600096,
      "byteOffset": 1772448,
      "byteStride": 16,
      "name": "floatBufferViews",
      "target": 34962
    }
  ],
  "buffers": [
    {
      "byteLength": 2372544,
      "uri": "scene.bin"
    }
  ],
  "images": [
    {
      "uri": "textures/Material_16_baseColor.png"
    },
    {
      "uri": "textures/Material_16_metallicRoughness.png"
    },
    {
      "uri": "textures/Material_16_normal.png"
    },
    {
      "uri": "textures/Material_19_baseColor.png"
    },
    {
      "uri": "textures/Material_19_metallicRoughness.png"
    },
    {
      "uri": "textures/Material_19_normal.png"
    },
    {
      "uri": "textures/Material_20_baseColor.png"
    },
    {
      "uri": "textures/Material_20_metallicRoughness.png"
    },
    {
      "uri": "textures/Material_20_normal.png"
    },
    {
      "uri": "textures/Material_18_baseColor.png"
    },
    {
      "uri": "textures/Material_18_metallicRoughness.png"
    },
    {
      "uri": "textures/Material_18_normal.png"
    },
    {
      "uri": "textures/Material_17_baseColor.png"
    },
    {
      "uri": "textures/Material_17_metallicRoughness.png"
    },
    {
      "uri": "textures/Material_17_normal.png"
    }
  ],
  "materials": [
    {
      "doubleSided": true,
      "name": "Material_16",
      "normalTexture": {
        "index": 2
      },
      "occlusionTexture": {
        "index": 1
      },
      "pbrMetallicRoughness": {
        "baseColorTexture": {
          "index": 0
        },
        "metallicRoughnessTexture": {
          "index": 1
        }
      }
    },
    {
      "doubleSided": true,
      "name": "Material_19",
      "normalTexture": {
        "index": 5
      },
      "occlusionTexture": {
        "index": 4
      },
      "pbrMetallicRoughness": {
        "baseColorTexture": {
          "index": 3
        },
        "metallicRoughnessTexture": {
          "index": 4
        }
      }
    },
    {
      "doubleSided": true,
      "name": "Material_20",
      "normalTexture": {
        "index": 8
      },
      "occlusionTexture": {
        "index": 7
      },
      "pbrMetallicRoughness": {
        "baseColorTexture": {
          "index": 6
        },
        "metallicRoughnessTexture": {
          "index": 7
        }
      }
    },
    {
      "doubleSided": true,
      "name": "Material_18",
      "normalTexture": {
        "index": 11
      },
      "occlusionTexture": {
        "index": 10
      },
      "pbrMetallicRoughness": {
        "baseColorTexture": {
          "index": 9
        },
        "metallicRoughnessTexture": {
          "index": 10
        }
      }
    },
    {
      "doubleSided": true,
      "name": "Material_17",
      "normalTexture": {
        "index": 14
      },
      "occlusionTexture": {
        "index": 13
      },
      "pbrMetallicRoughness": {
        "baseColorTexture": {
          "index": 12
        },
        "metallicRoughnessTexture": {
          "index": 13
        }
      }
    }
  ],
  "meshes": [
    {
      "name": "ESTRUCTURA_Material #16_0",
      "primitives": [
        {
          "attributes": {
            "NORMAL": 1,
            "POSITION": 0,
            "TANGENT": 2,
            "TEXCOORD_0": 3
          },
          "indices": 4,
          "material": 0,
          "mode": 4
        }
      ]
    },
    {
      "name": "DETALLES_Material #19_0",
      "primitives": [
        {
          "attributes": {
            "NORMAL": 6,
            "POSITION": 5,
            "TANGENT": 7,
            "TEXCOORD_0": 8
          },
          "indices": 9,
          "material": 1,
          "mode": 4
        }
      ]
    },
    {
      "name": "CABLEADO_Material #20_0",
      "primitives": [
        {
          "attributes": {
            "NORMAL": 11,
            "POSITION": 10,
            "TANGENT": 12,
            "TEXCOORD_0": 13
          },
          "indices": 14,
          "material": 2,
          "mode": 4
        }
      ]
    },
    {
      "name": "TEJAS_Material #18_0",
      "primitives": [
        {
          "attributes": {
            "NORMAL": 16,
            "POSITION": 15,
            "TANGENT": 17,
            "TEXCOORD_0": 18
          },
          "indices": 19,
          "material": 3,
          "mode": 4
        }
      ]
    },
    {
      "name": "MADERAS_Material #17_0",
      "primitives": [
        {
          "attributes": {
            "NORMAL": 21,
            "POSITION": 20,
            "TANGENT": 22,
            "TEXCOORD_0": 23
          },
          "indices": 24,
          "material": 4,
          "mode": 4
        }
      ]
    }
  ],
  "nodes": [
    {
      "children": [
        1
      ],
      "matrix": [
        1.0,
        0.0,
        0.0,
        0.0,
        0.0,
        2.220446049250313e-16,
        -1.0,
        0.0,
        0.0,
        1.0,
        2.220446049250313e-16,
        0.0,
        0.0,
        0.0,
        0.0,
        1.0
      ],
      "name": "Sketchfab_model"
    },
    {
      "children": [
        2
      ],
      "matrix": [
        1.0,
        0.0,
        0.0,
        0.0,
        0.0,
        0.0,
        1.0,
        0.0,
        0.0,
        -1.0,
        0.0,
        0.0,
        0.0,
        0.0,
        0.0,
        1.0
      ],
      "name": "8f80820477194f848fae6817c9275f83.fbx"
    },
    {
      "children": [
        3,
        6,
        8,
        10,
        13
      ],
      "name": "RootNode"
    },
    {
      "children": [
        4
      ],
      "matrix": [
        1.3735270500183105,
        0.0,
        0.0,
        0.0,
        0.0,
        3.0598369064358075e-16,
        -1.3780280351638794,
        0.0,
        0.0,
        1.0,
        2.220446049250313e-16,
        0.0,
        2.610260009765625,
        56.261024475097656,
        -33.434539794921875,
        1.0
      ],
      "name": "ESTRUCTURA"
    },
    {
      "children": [
        5
      ],
      "matrix": [
        1.0,
        0.0,
        -0.0,
        0.0,
        0.0,
        1.0,
        0.0,
        0.0,
        0.0,
        0.0,
        1.0,
        0.0,
        13.198570251464844,
        0.0,
        -57.290313720703125,
        1.0
      ],
      "name": "Object_4"
    },
    {
      "mesh": 0,
      "name": "ESTRUCTURA_Material #16_0"
    },
    {
      "children": [
        7
      ],
      "matrix": [
        1.0,
        0.0,
        0.0,
        0.0,
        0.0,
        2.220446049250313e-16,
        -1.0,
        0.0,
        0.0,
        1.0,
        2.220446049250313e-16,
        0.0,
        -13.782642364501953,
        -1.4075205326080322,
        152.73004150390625,
        1.0
      ],
      "name": "DETALLES"
    },
    {
      "mesh": 1,
      "name": "DETALLES_Material #19_0"
    },
    {
      "children": [
        9
      ],
      "matrix": [
        0.3086859881877899,
        0.0,
        0.0,
        0.0,
        0.0,
        -0.13045633580028906,
        -0.2797645148210091,
        0.0,
        0.0,
        0.2797645148210091,
        -0.13045633580028906,
        0.0,
        94.15681457519531,
        237.5784149169922,
        -13.495229721069336,
        1.0
      ],
      "name": "CABLEADO"
    },
    {
      "mesh": 2,
      "name": "CABLEADO_Material #20_0"
    },
    {
      "children": [
        11
      ],
      "matrix": [
        0.1541610062122345,
        0.0,
        0.0,
        0.0,
        0.0,
        2.220446049250313e-16,
        -1.0,
        0.0,
        0.0,
        1.0,
        2.220446049250313e-16,
        0.0,
        -36.90977478027344,
        94.64949035644531,
        104.76115417480469,
        1.0
      ],
      "name": "TEJAS"
    },
    {
      "children": [
        12
      ],
      "matrix": [
        1.0,
        0.0,
        -0.0,
        0.0,
        0.0,
        1.0,
        0.0,
        0.0,
        0.0,
        0.0,
        1.0,
        0.0,
        33.270790100097656,
        3.3835601806640625,
        -93.94514465332031,
        1.0
      ],
      "name": "Object_11"
    },
    {
      "mesh": 3,
      "name": "TEJAS_Material #18_0"
    },
    {
      "children": [
        14
      ],
      "matrix": [
        1.2972220182418823,
        0.0,
        0.0,
        0.0,
        0.0,
        3.30861551230252e-16,
        -1.490067958831787,
        0.0,
        0.0,
        1.294342041015625,
        2.874016671351731e-16,
        0.0,
        -99.30876922607422,
        115.23222351074219,
        -33.434539794921875,
        1.0
      ],
      "name": "MADERAS"
    },
    {
      "children": [
        15
      ],
      "matrix": [
        1.0,
        0.0,
        -0.0,
        0.0,
        0.0,
        1.0,
        0.0,
        0.0,
        0.0,
        0.0,
        1.0,
        0.0,
        98.38990020751953,
        0.0,
        -130.20179748535156,
        1.0
      ],
      "name": "Object_14"
    },
    {
      "mesh": 4,
      "name": "MADERAS_Material #17_0"
    }
  ],
  "samplers": [
    {
      "magFilter": 9729,
      "minFilter": 9987,
      "wrapS": 10497,
      "wrapT": 10497
    }
  ],
  "scene": 0,
  "scenes": [
    {
      "name": "Sketchfab_Scene",
      "nodes": [
        0
      ]
    }
  ],
  "textures": [
    {
      "sampler": 0,
      "source": 0
    },
    {
      "sampler": 0,
      "source": 1
    },
    {
      "sampler": 0,
      "source": 2
    },
    {
      "sampler": 0,
      "source": 3
    },
    {
      "sampler": 0,
      "source": 4
    },
    {
      "sampler": 0,
      "source": 5
    },
    {
      "sampler": 0,
      "source": 6
    },
    {
      "sampler": 0,
      "source": 7
    },
    {
      "sampler": 0,
      "source": 8
    },
    {
      "sampler": 0,
      "source": 9
    },
    {
      "sampler": 0,
      "source": 10
    },
    {
      "sampler": 0,
      "source": 11
    },
    {
      "sampler": 0,
      "source": 12
    },
    {
      "sampler": 0,
      "source": 13
    },
    {
      "sampler": 0,
      "source": 14
    }
  ]
}
